<?xml version="1.0" encoding="UTF-8"?>
<!-- Generated by Pixelmator Pro 3.3.9 -->
<svg width="148" height="25" viewBox="0 0 148 25" xmlns="http://www.w3.org/2000/svg">
    <g id="Group">
        <path id="Path" fill="#ffffff" stroke="none" d="M 37 6.299 L 42.227001 6.299 C 42.973 6.299 43.660999 6.454 44.289001 6.764999 C 44.917999 7.076 45.411999 7.5 45.772999 8.035 C 46.133999 8.57 46.314999 9.155 46.314999 9.789 C 46.314999 10.461 46.150002 11.043 45.82 11.535 C 45.490002 12.026 45.057999 12.403 44.522999 12.664 L 44.522999 12.814 C 45.220001 13.062 45.772999 13.457 46.183998 13.999 C 46.594002 14.54 46.799999 15.19 46.799999 15.949 C 46.799999 16.684 46.604 17.334 46.212002 17.9 C 45.812496 18.472614 45.26358 18.924681 44.625 19.207001 C 43.959999 19.511999 43.222 19.664 42.412998 19.664 L 37 19.664 L 37 6.299 Z M 42.040001 11.749 C 42.588001 11.749 43.026001 11.597 43.355999 11.292 C 43.686001 10.987 43.851002 10.604 43.851002 10.144 C 43.851002 9.696 43.692001 9.32 43.375 9.014 C 43.056999 8.709999 42.637001 8.556999 42.115002 8.556999 L 39.52 8.556999 L 39.52 11.749 L 42.040001 11.749 Z M 42.32 17.368 C 42.93 17.368 43.405998 17.209 43.748001 16.892 C 44.09 16.575001 44.261002 16.160999 44.261002 15.651 C 44.261002 15.141 44.087002 14.724 43.738998 14.4 C 43.389999 14.076 42.891998 13.915 42.244999 13.915 L 39.52 13.915 L 39.52 17.368 L 42.32 17.368 Z M 55.247002 19.962999 C 53.939999 19.962999 52.755001 19.655001 51.691002 19.039 C 50.641239 18.437435 49.773632 17.563265 49.18 16.509001 C 48.57 15.439 48.264999 14.263 48.264999 12.981 C 48.264999 11.7 48.57 10.524 49.18 9.453 C 49.773502 8.399233 50.640739 7.525433 51.689999 6.924 C 52.756001 6.308001 53.939999 6 55.248001 6 C 56.554001 6 57.740002 6.308001 58.804001 6.924 C 59.853394 7.525707 60.720642 8.399864 61.313999 9.454 C 61.924 10.524 62.229 11.7 62.229 12.981 C 62.229 14.263 61.924 15.439 61.313999 16.509001 C 60.720642 17.563135 59.853394 18.437294 58.804001 19.039 C 57.740002 19.655001 56.554001 19.962999 55.248001 19.962999 Z M 55.247002 17.573 C 56.037254 17.581045 56.815807 17.381752 57.505001 16.995001 C 58.184128 16.614712 58.743492 16.052233 59.119999 15.371 C 59.512001 14.674 59.708 13.877 59.708 12.981 C 59.708 12.085 59.512001 11.289 59.119999 10.592 C 58.743492 9.910769 58.184128 9.348289 57.505001 8.968 C 56.815903 8.580898 56.037342 8.38126 55.247002 8.389 C 54.459076 8.380312 53.682858 8.580059 52.997002 8.968 C 52.322136 9.350523 51.766556 9.912682 51.391998 10.592 C 51 11.289 50.804001 12.085 50.804001 12.982 C 50.804001 13.877 51 14.674 51.391998 15.371 C 51.766556 16.050318 52.322136 16.612476 52.997002 16.995001 C 53.682953 17.382593 54.459167 17.581993 55.247002 17.573 Z M 70.599998 19.962999 C 69.292999 19.962999 68.108002 19.655001 67.043999 19.039 C 65.994606 18.437294 65.127357 17.563135 64.533997 16.509001 C 63.924 15.439 63.618999 14.263 63.618999 12.981 C 63.618999 11.7 63.924 10.524 64.532997 9.453 C 65.126778 8.399101 65.99437 7.52529 67.043999 6.924 C 68.108002 6.308001 69.293999 6 70.599998 6 C 71.906998 6 73.092003 6.308001 74.155998 6.924 C 75.205391 7.525707 76.072639 8.399864 76.666 9.454 C 77.276001 10.524 77.581001 11.7 77.581001 12.981 C 77.581001 14.263 77.276001 15.439 76.667 16.509001 C 76.073364 17.563265 75.205757 18.437435 74.155998 19.039 C 73.092003 19.655001 71.905998 19.962999 70.599998 19.962999 Z M 70.599998 17.573 C 71.390594 17.581221 72.16951 17.381922 72.859001 16.995001 C 73.537758 16.614563 74.096764 16.052097 74.473 15.371 C 74.864998 14.674 75.060997 13.877 75.060997 12.981 C 75.060997 12.085 74.864998 11.289 74.473 10.592 C 74.096764 9.910903 73.537758 9.348436 72.859001 8.968 C 72.169609 8.58073 71.390678 8.381084 70.599998 8.389 C 69.812073 8.380312 69.035858 8.580059 68.349998 8.968 C 67.675133 9.350523 67.119553 9.912682 66.745003 10.592 C 66.352997 11.289 66.156998 12.085 66.156998 12.982 C 66.156998 13.877 66.352997 14.674 66.745003 15.371 C 67.119827 16.050451 67.675766 16.612623 68.350998 16.995001 C 69.036659 17.382421 69.812508 17.581816 70.599998 17.573 Z M 79.830002 6.299999 L 82.349998 6.299999 L 82.349998 12.03 L 82.5 12.03 L 87.389999 6.299999 L 90.432999 6.299999 L 90.432999 6.448999 L 85.599998 11.973 L 90.938004 19.514999 L 90.938004 19.664 L 87.858002 19.664 L 83.863998 13.971 L 82.351997 15.744 L 82.351997 19.664 L 79.832001 19.664 L 79.832001 6.299 Z M 93.778999 6 L 97.027 6 L 100.572998 15.39 L 100.723 15.39 L 104.267998 6 L 107.535004 6 L 107.535004 19.365 L 105.033997 19.365 L 105.033997 12.776 L 105.183998 10.555 L 105.033997 10.555 L 101.636002 19.365 L 99.676003 19.365 L 96.260002 10.555 L 96.111 10.555 L 96.261002 12.776 L 96.261002 19.365999 L 93.778 19.365999 L 93.778 6 Z M 114.579002 6 L 117.473 6 L 122.494003 19.365 L 119.712997 19.365 L 118.593002 16.173 L 113.477997 16.173 L 112.358002 19.365 L 109.577003 19.365 L 114.579002 6 Z M 117.772003 13.859 L 116.596001 10.499 L 116.110001 8.893 L 115.960999 8.893 L 115.475998 10.499 L 114.280998 13.859 L 117.771004 13.859 Z M 124.553001 6 L 129.425003 6 C 130.296005 6 131.070999 6.18 131.748993 6.541 C 132.427002 6.902 132.953003 7.403 133.326004 8.043999 C 133.699997 8.684 133.886002 9.41 133.886002 10.219 C 133.886002 11.077 133.615997 11.839 133.074005 12.505 C 132.538986 13.166434 131.831635 13.667191 131.029999 13.952 L 131.011993 14.082 L 134.595993 19.216 L 134.595993 19.365999 L 131.701996 19.365999 L 128.248993 14.344 L 127.072998 14.344 L 127.072998 19.365 L 124.553001 19.365 L 124.553001 6 Z M 129.406006 12.03 C 129.979004 12.03 130.445999 11.855 130.806 11.507 C 131.167007 11.158 131.348007 10.717 131.348007 10.181 C 131.348007 9.671 131.175995 9.236 130.834 8.875 C 130.492004 8.514 130.028 8.333 129.444 8.333 L 127.072998 8.333 L 127.072998 12.029 L 129.406006 12.029 Z M 136.636002 6 L 139.156006 6 L 139.156006 11.73 L 139.306 11.73 L 144.195999 6 L 147.238998 6 L 147.238998 6.15 L 142.404007 11.675 L 147.744003 19.216 L 147.744003 19.365999 L 144.664001 19.365999 L 140.667999 13.672 L 139.156006 15.445 L 139.156006 19.365 L 136.636002 19.365 L 136.636002 6 Z"/>
        <g id="g1">
            <path id="path1" fill="#5267df" fill-rule="evenodd" stroke="none" d="M 25 12.5 C 25 19.403559 19.403559 25 12.5 25 C 5.596441 25 0 19.403559 0 12.5 C -0 5.596441 5.596441 0 12.5 0 C 19.403559 0 25 5.596441 25 12.5 Z"/>
            <path id="path2" fill="#ffffff" fill-rule="evenodd" stroke="none" d="M 9 9 L 9 19 L 12.54 15.56 L 16.077999 19 L 16.077999 9 C 16.077999 7.895432 15.18257 7 14.078 7 L 11 7 C 9.895431 7 9 7.895432 9 9 Z"/>
        </g>
    </g>
</svg>
